<mxfile host="app.diagrams.net" modified="2023-10-01T22:00:37.424Z" agent="Mozilla/5.0 (Macintosh; Intel Mac OS X 10_15_7) AppleWebKit/537.36 (KHTML, like Gecko) Chrome/117.0.0.0 Safari/537.36" etag="4qIM-D03ZSHGPt7cWZnV" version="21.8.2" type="github">
  <diagram id="4_XCW6oBCm1cpU5HytLm" name="Page-1">
    <mxGraphModel dx="880" dy="510" grid="0" gridSize="6" guides="1" tooltips="1" connect="1" arrows="1" fold="1" page="1" pageScale="1" pageWidth="1600" pageHeight="900" math="0" shadow="0">
      <root>
        <mxCell id="0" />
        <mxCell id="1" parent="0" />
        <mxCell id="oHFv8ve8owYaf5rruyJd-1" value="&lt;b&gt;Data Soources&lt;/b&gt;" style="rounded=1;whiteSpace=wrap;html=1;fillColor=#dae8fc;strokeColor=none;verticalAlign=top;fontColor=#3399FF;" parent="1" vertex="1">
          <mxGeometry x="48" y="144" width="120" height="432" as="geometry" />
        </mxCell>
        <mxCell id="oHFv8ve8owYaf5rruyJd-2" value="Data Ingestion" style="rounded=1;whiteSpace=wrap;html=1;fillColor=#dae8fc;strokeColor=none;verticalAlign=top;fontStyle=1;fontColor=#3399FF;fontSize=9;" parent="1" vertex="1">
          <mxGeometry x="186" y="144" width="120" height="432" as="geometry" />
        </mxCell>
        <mxCell id="oHFv8ve8owYaf5rruyJd-3" value="Staging:&lt;br&gt;Raw Data" style="rounded=1;whiteSpace=wrap;html=1;fillColor=#dae8fc;strokeColor=none;verticalAlign=top;fontStyle=1;fontColor=#3399FF;" parent="1" vertex="1">
          <mxGeometry x="318" y="144" width="120" height="264" as="geometry" />
        </mxCell>
        <mxCell id="oHFv8ve8owYaf5rruyJd-4" value="Trusted: Standardized Zone" style="rounded=1;whiteSpace=wrap;html=1;fillColor=#dae8fc;strokeColor=none;verticalAlign=top;fontStyle=1;fontColor=#3399FF;" parent="1" vertex="1">
          <mxGeometry x="450" y="144" width="312" height="126" as="geometry" />
        </mxCell>
        <mxCell id="oHFv8ve8owYaf5rruyJd-5" value="Refined: Cleansing Zone" style="rounded=1;whiteSpace=wrap;html=1;fillColor=#dae8fc;strokeColor=none;verticalAlign=top;fontStyle=1;fontColor=#3399FF;" parent="1" vertex="1">
          <mxGeometry x="450" y="282" width="312" height="126" as="geometry" />
        </mxCell>
        <mxCell id="oHFv8ve8owYaf5rruyJd-6" value="Sandbox" style="rounded=1;whiteSpace=wrap;html=1;fillColor=#dae8fc;strokeColor=none;verticalAlign=top;fontStyle=1;fontColor=#3399FF;" parent="1" vertex="1">
          <mxGeometry x="324" y="420" width="438" height="90" as="geometry" />
        </mxCell>
        <mxCell id="oHFv8ve8owYaf5rruyJd-7" value="Data&lt;br&gt;Consumption" style="rounded=1;whiteSpace=wrap;html=1;fillColor=#dae8fc;strokeColor=none;verticalAlign=top;fontStyle=1;fontColor=#3399FF;" parent="1" vertex="1">
          <mxGeometry x="780" y="144" width="120" height="432" as="geometry" />
        </mxCell>
        <mxCell id="oHFv8ve8owYaf5rruyJd-8" value="Data Governance" style="rounded=1;whiteSpace=wrap;html=1;fillColor=#dae8fc;strokeColor=none;verticalAlign=middle;fontStyle=1;fontColor=#3399FF;" parent="1" vertex="1">
          <mxGeometry x="324" y="522" width="438" height="54" as="geometry" />
        </mxCell>
        <mxCell id="oHFv8ve8owYaf5rruyJd-10" value="Structured" style="rounded=0;whiteSpace=wrap;html=1;fontSize=9;fontStyle=1;verticalAlign=bottom;dashed=1;fontColor=#3399FF;" parent="1" vertex="1">
          <mxGeometry x="60" y="198" width="96" height="84" as="geometry" />
        </mxCell>
        <mxCell id="oHFv8ve8owYaf5rruyJd-23" value="Semi-Structured" style="rounded=0;whiteSpace=wrap;html=1;fontSize=9;fontStyle=1;verticalAlign=bottom;dashed=1;fontColor=#3399FF;" parent="1" vertex="1">
          <mxGeometry x="60" y="291" width="96" height="114" as="geometry" />
        </mxCell>
        <mxCell id="oHFv8ve8owYaf5rruyJd-24" value="Un-Structured" style="rounded=0;whiteSpace=wrap;html=1;fontSize=9;fontStyle=1;verticalAlign=bottom;dashed=1;fontColor=#3399FF;" parent="1" vertex="1">
          <mxGeometry x="60" y="414" width="96" height="150" as="geometry" />
        </mxCell>
        <mxCell id="oHFv8ve8owYaf5rruyJd-25" value="Batch/Scheduled" style="rounded=0;whiteSpace=wrap;html=1;fontSize=9;fontStyle=1;verticalAlign=bottom;dashed=1;fontColor=#3399FF;" parent="1" vertex="1">
          <mxGeometry x="198" y="198" width="96" height="66" as="geometry" />
        </mxCell>
        <mxCell id="oHFv8ve8owYaf5rruyJd-26" value="Real-Time/&lt;br&gt;Stream" style="rounded=0;whiteSpace=wrap;html=1;fontSize=9;fontStyle=1;verticalAlign=bottom;dashed=1;fontColor=#3399FF;" parent="1" vertex="1">
          <mxGeometry x="198" y="414" width="96" height="66" as="geometry" />
        </mxCell>
        <mxCell id="oHFv8ve8owYaf5rruyJd-29" value="&amp;nbsp;--&amp;nbsp; Data Scientists, Reasearch and Analysis&amp;nbsp;&lt;br&gt;&lt;br&gt;&amp;nbsp;--&amp;nbsp; Exploratory Analysis" style="rounded=0;whiteSpace=wrap;html=1;align=left;fillColor=#dae8fc;strokeColor=none;" parent="1" vertex="1">
          <mxGeometry x="342" y="444" width="270" height="60" as="geometry" />
        </mxCell>
        <mxCell id="oHFv8ve8owYaf5rruyJd-31" value="Reporting" style="shadow=0;dashed=0;html=1;strokeColor=none;fillColor=#4495D1;labelPosition=center;verticalLabelPosition=bottom;verticalAlign=top;align=center;outlineConnect=0;shape=mxgraph.veeam.2d.report;fontSize=10;" parent="1" vertex="1">
          <mxGeometry x="827.96" y="264" width="29" height="36" as="geometry" />
        </mxCell>
        <mxCell id="oHFv8ve8owYaf5rruyJd-32" value="Insights" style="image;aspect=fixed;html=1;points=[];align=center;fontSize=10;image=img/lib/azure2/devops/Application_Insights.svg;labelBackgroundColor=none;" parent="1" vertex="1">
          <mxGeometry x="825.5" y="324" width="29.33" height="42" as="geometry" />
        </mxCell>
        <mxCell id="oHFv8ve8owYaf5rruyJd-33" value="&lt;font color=&quot;#000000&quot; style=&quot;font-size: 10px;&quot;&gt;Alerts&lt;/font&gt;" style="sketch=0;outlineConnect=0;fontColor=#ffffff;fillColor=#e51400;strokeColor=#B20000;dashed=0;verticalLabelPosition=bottom;verticalAlign=top;align=center;html=1;fontSize=10;fontStyle=0;aspect=fixed;pointerEvents=1;shape=mxgraph.aws4.alert;" parent="1" vertex="1">
          <mxGeometry x="825.5" y="396" width="33.92" height="30" as="geometry" />
        </mxCell>
        <mxCell id="oHFv8ve8owYaf5rruyJd-35" value="Search / Quering" style="html=1;verticalLabelPosition=bottom;align=center;labelBackgroundColor=none;verticalAlign=top;strokeWidth=2;strokeColor=#0080F0;shadow=0;dashed=0;shape=mxgraph.ios7.icons.looking_glass;fontSize=10;" parent="1" vertex="1">
          <mxGeometry x="839.21" y="522" width="18" height="18" as="geometry" />
        </mxCell>
        <mxCell id="oHFv8ve8owYaf5rruyJd-43" value="App Logs" style="shape=image;html=1;verticalAlign=top;verticalLabelPosition=bottom;labelBackgroundColor=#ffffff;imageAspect=0;aspect=fixed;image=https://cdn3.iconfinder.com/data/icons/dompicon-glyph-file-format-2/256/file-log-format-type-128.png;fontSize=9;" parent="1" vertex="1">
          <mxGeometry x="72.38" y="294.75" width="29.25" height="29.25" as="geometry" />
        </mxCell>
        <mxCell id="oHFv8ve8owYaf5rruyJd-48" value="CSO FILE" style="shape=image;verticalLabelPosition=bottom;labelBackgroundColor=default;verticalAlign=top;aspect=fixed;imageAspect=0;image=data:image/png,iVBORw0KGgoAAAANSUhEUgAAAH4AAAB+CAMAAADV/VW6AAAAZlBMVEX///8AAADf399AQECCgoLLy8uWlpZQUFCcnJy/v7+urq7o6Oj8/Pzl5eXFxcXw8PAgICCjo6PS0tJmZmYmJiZWVlZ4eHjZ2dm0tLQvLy8WFhZHR0f29vZra2teXl6Kioo3NzcNDQ0baGqJAAAD30lEQVRoge2b6ZKjIBSFRaMm7ruJS2Le/yUHWcQF0wbRnpni/OiybORjuYB2n6tpMwVFBOTo4s3r/lF6LondKw2/pPsPiXQA8u/4ni2VDoDhfoN3JNMByMovOi9z4omqYDPel08H4H3bitfJE5GxU9MA3sqn+Nfm8VpRMB2A+Dv8ZS/+NpuAbRUehgftlg3wODx4buBLx1cj/s8bkHT8NWX82j8dH2sXxs+S8/GexfiVeTpe0+JRAH7egA7BT86x+/l47TZaANcz8RczgDKtN+MXJ+J5KlY3oFPwoG1+FQ90hVf4o/CldeXIPgvP1+t38ReFV3iF//vxiSVFiSBe0h87HIVXeIX/Au+aUuQK4iVL4RVe4bfg77X9lerP7T5810sVXuH/B3y8hllTLhUvWQqv8Aqv8Aqv8Aqv8Aqv8Fx8WCZJUk4NeD68lVBLSOO7UENxeO1PS+/A6xcD/aormAHkliJbZZTe0f/ES5BBEX5oR1lWOZM6xPH0X3C9iAOpqdmtR9+mBpkUiD8u6a+rqVdGGF+Asdr+ljd1pZm0FHn22l/bU6eAKJ587Ty6DF/chvHo0rTDv4ODfh8hkfHQmlYjiMf+0bcThi5uSA3nFlGt0PNCiz7jogs0+X7f0PfMqCiIRwNJJhV/dSYwzqAiVm0aw17bdGiwYa+b+VTF8DjGqOPEfqfWzcOhRSoKLdLN1/BwMX5kH96PWOdhY3CXQjQh1W3SQbO/Z/TOEBQk02UnikdegGzuNyOLoY51Ft44IHwNTw2YW+TE8Cjc7LnbxSVlwft5HxqQkk6jCLHnBp0d+Hxh9vEN2gBQUS8oWnotiUFr/oRUvOY5rAHEC6i/UcB7FZciFw/n+p5TN9gD14l2mxIvi0Vx2Xi4DhKL7IT4JEBLL3aWlYjj0YR2q05P6kcshxratv+5tObtWffU6NjodA2EdC2W1VCg6YZwWFrzxfDYtE+N0zE88mN4vupWR0fES1n7hrPxuaxecM9Ho1slo6F4Nq+IlWtshh/8SotlJ4zXUXRl/bZr4lM+IGdw2rDm4UrpblRxXLE7z3tAU1bgxtKQTIK6feILer6Q+wYnK0P4bWdk9gVkA26MyT36jqdZK1XswWsjsy8oyJk3bpMxVIm3HK4jdsebbtni7SXLmdVYv+BIiGqHHUihEUE9eNvErvf8JgmCIJlNaWIGgTlF9S/7Ljcf51/+ylF4hVd4hT8OvzsljK+tNuHdCXF8RT/gD0kHXGotPemIZMilVj4ZtCNSQTmaf3ePui87EZajxYfvePblpgFz9PiYmCY1CZqjfC3sqeSlgC8UFYuk3D/2pD8AA1NqOgAAAABJRU5ErkJggg==;fontSize=9;" parent="1" vertex="1">
          <mxGeometry x="69" y="346.32" width="27.37" height="27.37" as="geometry" />
        </mxCell>
        <mxCell id="VqjGHI5C1Bsd8xDJmaeP-1" value="" style="shape=image;verticalLabelPosition=bottom;labelBackgroundColor=default;verticalAlign=top;aspect=fixed;imageAspect=0;image=data:image/png,iVBORw0KGgoAAAANSUhEUgAAAIkAAACJCAMAAAAv+uv7AAAAY1BMVEX///8AAAD6+vpQUFAaGhrz8/Ps7Ozb29tNTU339/eCgoKHh4fDw8OdnZ1AQEDX19d2dnaXl5fl5eVVVVVHR0eOjo5iYmIgICCrq6sWFhYrKysLCwulpaW1tbXQ0NBtbW03Nze6FgvYAAADw0lEQVR4nO2bDXOyMAzHKa+WlykgMESd3/9TPmlp2ASlnGs7n7v8b+edIcjPmJa0ZJ5HIpFIJBKJRCKRSPblRzblb+bYp22ws6egTZNNHEnN7KvewHLtHYAw1l91IJUbEMbCSkOycwTC2G4dJBc+x0xpypivLB11UobuoNSiy0erdENLUI8KMMz97jhqdMlXSQ7CJcN3Z/zQKb+Q7YiGBF3OaGnQEikD/1CGGl2u8m26SnLvUuCHYnrxACPAlWWPLiWelKIFEyFGkuAu8mx4GxJGJERihuSlUVygJUNLrAzRYhRvJjmqaezHzJbOZ7asGXVAl7YopYrppPI8qsCTbp+jLtlWElcikpdIYtvaTLK90HxNPpEQCZEQyVJRlRdwZyzyKtI7WySJGyxYoPpoYv0JlkiqqSRQOujWdZZILh2bq7v8BUm24BBq3JO0D0GgdnNN8jgiG6NikuSiLjuU6QJFnysGSSpMVij6q68ZSacdQQZJcPj20jO/3aOsbwIYJYnxmqHy/LxH0U1x5kiaOYkX36WLLmmNkUTBggSWpUdpGcRLoLkHGSOp2AMSGE8n1p9OcsGnyVljJPljEo8XN9Z1IdNtoRkhkUeKJyQQrZb1gqR4dK5REl/uuacPSXwuQK9ygZ49+wBTJJwDCQeSsIfcDAcWct/35VYK9znIh8OsH+SMAu9skfg84uKCcM8Jw37ow3AIuZS4rBBwxhIzE9786Qj6LYn4yvK6ZyABEEiJTpCJoERcxiCCmQYOsdIbPS2R+OoXgLHTDazvAOYkSSJJAr/M5QMCAtFiuS8CqBLcPIn8CQAH5pO+F0EJuzEmEVwVTkmgZOk7cYQlfHSOHofl9xkLX1t8TR4MkAuQsZAnwiZf4gMbBvEHyVwLMMhl78njLZv3Hf+Mm2lCzu47y3vxrC7QLX0s1CeD9NzPalqH9cl3zXaFrGnuOdzWbD/q2ILN5bSO/ZG0Czmu7d9ovfMsKn+wBnyjdTGMoPmqK/2jvQJP7J98P/qvm817OVb2lHiVF1maFXn1tAZwRPKSiIRIzJJYBtl0mdFln9jVfjNJaFubSRyJSP5vkp3qGWhW+grQMG2B7rAZ4Tg/6YB1zNRmVW8lsdVr8T/3nxAJkbwRyXqP3+t9j9MonlZkuo6p9S0F6XPDGeh7klr0gmK76PR4tC7H2bCc+lob1TFVTh1TF9UyNU45mo1sd/2xwTqIV4WOQLQ9w676qENtH7Wj3vJ22wo6ydrAouo229ZvL2T1fxCeP1kgkUgkEolEIpFIJIP6B2wjT+AGVhZPAAAAAElFTkSuQmCC;" parent="1" vertex="1">
          <mxGeometry x="117" y="426" width="29" height="29" as="geometry" />
        </mxCell>
        <mxCell id="53FnnrvYB-HP6rrczW1--1" value="" style="shape=image;verticalLabelPosition=bottom;labelBackgroundColor=default;verticalAlign=top;aspect=fixed;imageAspect=0;image=data:image/png,iVBORw0KGgoAAAANSUhEUgAAAIQAAACECAMAAABmmnOVAAAAZlBMVEX///8AAAD8/Pz9/f3+/v77+/sBAQF6enr29vZRUVHU1NQ8PDzw8PCDg4O1tbWAgICoqKhISEiSkpLm5uZeXl5xcXHf398hISG/v7/Hx8cUFBRCQkKbm5tmZmbNzc2hoaEuLi41NTXN+IcYAAAKoklEQVR4nKVb6YLqKgymm61O7ah1X0Z9/5e87EtIgJ7bH5yeoUJIvoTkK2UtY6xreFPLpuZNY5u2k93umTp4pu1EU2NDqB7brRp0BqYu+gnRKBlqOwkYoAXd3hCeiOQQsokX6g3QgQGcHjq7iBIZ6swMhAx1OAm0hZWh7ShbwGUkZ+jS1iIXmsBDsS3sDAWYTA9QZAsccXaGPB5IWzDaFm4ZOTwQMkA8iKaRjXiwFQ2rw8Z1owvtMqrM2oJfQ+nFlLvheCBtwbtRYzoZhml7Whdex9N2GoIhSmwhupO2mE/V0us0Mwwzae9PPXG9i2FXslmZO926nrCpqusC31Q9iKbsAH+VnR6dDwpmpLsx2hYxHhQwKWt1brlwprQg92GRLQQwySee2Ez0tbJaqw6FtrCuS/rm8AhsIe4+e+z6OFNoQS8p38QiMeU57Rwp+2X2/vAaXoEeRDO3hb6puklNscnIYIa+zArHzIDOrGSIkDI59GfxIEekUPv0VCzvPqN9JtyzIgRLUJA5DLLtkTnMFqi4qp6oNRh7R76zXbgrkprqAd4EKA7Y9apCYXmzXZglIU8owPZIFChxUNFsWUGcrCNgRp6jhIB6Dm1PxtItw/SA+KZ6hrZWXx6wV6BHClGesda05/SeFUhpiJ5tUZx0cpKa6tMgSFxCiNyeFeKW8pz/IYQwx6KMlbSWFOKvK07tzNW9Kw3MUlsIYKKe0yghNuqRoJEbi2xgj2p2Wogl5QGakIpGCVFUAgU5jBYiUwKFQ5Ceo4RYXuvtJDAXVpOEtZQQLSkDCfxdCMwMHiw1gCZBFhMLaz0WAjMRJ90QtKaMEOgAdN0tNfFLdmO2iKkBK6UBZqbedMrWwl5fr9e70DeNnGRCqoFJKhINhLX4W83duCROOl3FvqmjmNZEdoCovmiW2AIpy70nPGBStlh4oaybkYGIIEYIVA8Nm29T+XU9d7RricSTimJaCFSGdthelm1pxzNDZDBwIa2lgYnZomGPfHYTNlV1RnwzoAawKKaEwP3i8A+Z32NoAR4CzgrlSB0wY2OOH28+oJEoN7YaurEYk21ADUSeA4AZxMlzBVZL539e94GwhaUGEM8JgBn65gadmAaFUk4f+2bAWUFbCGspIVC4/CHKRoEZgKSPfdMgjoxiHjAhXDbITJnygDc9IxnxWAYdxRww4b4phFiBimwV3q3A38RtzzA8BDJAazlgxnvWxoz/WK8/dpK7mdLeVPf9en83EveIbyLUQKApA0wk0GpgHs7jMMy3tfzf4Xw+i1Si+uU3k4ynP9M8DuP81sG1N1tjvK2SfLUGJpbDKFpvw/QlnnzIHwvaU27Mv1xXa5O5zR8NTPLtBGoLU4FtIkpLjio1IdiY4TyLOflSj7KHq+Iol3GQxE7N5vPA240PTCzHQGRw1MCGMYgHARfpHbNY4uVyVXWSEKJls5BNPHMQ0vBU73Jf8+eau8GEHydDagD1HFf8AFtoYAqyUkbOkbG1FEIMUa2UkbgQLyb3GP4vGysrRJoaiKylhcDyyU2lTdVN2+93Ek9yIeTW+x2krvjsawmH96n6nX6MEFT1AHc1K6UOVlg+ubELE7CQlfOxk3qdXurXQgVXtUUP172JmCBOQmoA0ZQHTFBfaBd9durX0lkEJgbWbjhcu0GYY1VdlGVa1qqdv89QA4jneMCESasWoro8N2qUnRJi4ikS/+dvlJgQcJhGlUmvleqo6oGSwQGzBbbg3TJivscnl+P1x/82X6QQh1HhQQnx/Zv53N+DoGB3FDCT1EBdB8AEzi2EePD7o/aO8SuFOIkA2zavQWJix71HuOYPV8BkhCAqGLL218DECoiNHLtWZhllSBTAPE2i+7y2QvDAKVy0E5qQ+QRV2ZO1vwNm9LJoY6L2+b0b1EKFJvqj0Oz0kMAULtqy2/MmZjiiwGwCYCJ8tQfM6B2rEoJvDY1C/8i1fhS6uwhpT3slRPVW/bxj0nGCqiYJW3jUAFLrqb3gqFh/tvkKT+Ez70VoGOTbAEk1Gy78bXdRLGuW/kPV3VoIjGgx+cT6udsdfmQkqvY7AdPnm++Y3515iXh6796WBezhDC4SkzyMLoixTU+aYwWSKXCtwK0EJmaLhs+A4cGjBrB37loIMB9ed3ndfZoaQKOYowZAcd+ARLeUe+8ZaouAGgBSAs7KGaQxwCzi3r3GATOq9sgohnBWpvsMrZApP1DqP0kNGE2ZRBfYQjQzqvFcBTYh1YNWMsmRepwVfJckw/EiPIidfaBZN8wWJGdlTDXeQ+AnBdF+ckVZN8AXwSgGOKuw+/wAeshd94nAQyyDr6kQmGARjN0O25cnyGf7m7gOuxG1hT1nRfGTEWcVlR/d0SnDVkLUBYcITtyQpBpKDYQDzBYFAa1fG7xlGHF3Sgvxi5akBmCKs9Mg3NceohtG74pIxhpRA95KAGeFv78QxSfXw/3sykU2zvM8Nsi214RroY7U+IU7SQ0EUZxnlytR+nkxZHf/XLYMry98WwTUAPUuKUENeIuQNYe0gKnkzDuwJYx4zMPoSXxqALWFWsShuoytP4l6/bTg7UTNYO3vFuqAmQR+t3OluxxfaQLZ9lwOQ1IDUa2HUQPYuyQWyqCFSNqiBbsisIVX61lqgLZFHShb5wYGE1lbeFkSvtDOUQO0DCjwEWDiM/j2QvGQoQaSwNfAzPhmqEoyikFqoPRdkhKiJE4G1ACqbADMknesrQ3lueMs8EVwHIQgZwUGyARCD5iI9+OnvGPfdMdZPGoAKpJUtgdMLNTWmDlrzYFA1NYBMBed4DbAzMdJwFlhwKepAdIWGpiVAWaxa4WaoqkBcgAIF3BqgI6TgDdDa72QGiBt0QS2sEJg3Vj1IJcRb85GkRQ1QPomACadw8Ahavp8dXBqoCRh1N0amIkcJl4G+e2DX4Hl46Qb3z/OQuQwMVwIazlgltnCdut8AsEtlmP87+MsbWwLBo+zNBlbaGBS56uTx1kA3rxuB8wC38x+6aKFKIyTTkT/nFXpaXqyOIiogWScRIFJ5TCRKrHxPWBmc5io2wET1HqRLfJfumDUQN4WPjCxXRFPL2hrhQcAxbOpY3/2GQtMrzygj5rpKEvW/kKI2zAuvQatiUycbJyIdeJLFyHE92f5dZHAROMkGmqTX7r888nUlQEmmcPECS1qCy0EfSyEbGS7ZbHrEnjQwMR5GCtEdDAjnA8VbMsKfTOmBkIp+zJ+EuuWQuTjpHMbsjj4raiZ4FnxuGdb5ptWGVBK2/msgvlQvhrVFW8PZfHBbb1xHFZRbKKUDWbGNDSxYlvUvgzwCckP0pw5iQfZzGC1SVvAL13838oPj5YCU91drONjOQziuqgtZCcARdlbBSnEgfJNKmsmrdV2aRVQeFAfoxX6JgAF8sRfyhYkMOVJPzINQsMoo6KYaOQHikDtK/h6YwVluBbGSa/aS/Ew//qpZiaHWfCli3pCfLR6XPbRanGcdIJkNCX+VvxphzJvPoeJuklbeCm1HJoZmcBHzV6+R38hSjM9VoaEtVI5Lf4uKZPDYKn/Ek4MHSBjTiyHiWdYyMMU89Wob1KQXcKJJWyxIIcJZzBnnBbwMEh50KRBR3t/7bpLlV0Alwys6SHyT6TrlyweCmSo/wO7DpTfAtWjjAAAAABJRU5ErkJggg==;" parent="1" vertex="1">
          <mxGeometry x="69" y="426" width="30" height="30" as="geometry" />
        </mxCell>
        <mxCell id="53FnnrvYB-HP6rrczW1--2" value="" style="shape=image;verticalLabelPosition=bottom;labelBackgroundColor=default;verticalAlign=top;aspect=fixed;imageAspect=0;image=data:image/png,iVBORw0KGgoAAAANSUhEUgAAAIEAAACBCAMAAADQfiliAAAAYFBMVEX///8AofbJ6v0An/YAnfbt+f4Ao/b1/P/j9P43sfgbq/cKqPey4v0ur/dqxfnV7v3c8f1TuviGzvq45PzA5/1JtviZ1/tcv/l8y/qq3fyh2vuQ0/s+uPl0yPplwvlPvfmxosrqAAADI0lEQVR4nO2aabOqMAyGkdKFspdFliP+/395QMd7FIJgSQfvTN8Zv6i1j6VJkzSOY2VlZWVlZWVlZWVl9Z+LU5Em7mYlSSoox5ue5irzZcA+USD9TOUUZX6h5IkQcvpU45hIif0AYfT55E8UUbhzfh6fdgCMDKd4137gl33z3xguexDi/QADQqwPECLMP0p7L4g9m/BJJNK1CIUDMCAoPQCKtASDpJ5ryrHmH5RrEaA9BN3HwDNEgkzHJ1AfkcDX2QhCogEMW1HHHtMAkSBINQgShkjAksMJXA0C9xMCQrxBy1vXNAFhZd02bV2yB8N0LBbBwn8kZXE3Nl6MPoR4rD+bIZA1uCys+nM3vGXDeiTCN0JAethRdy/DinE9uun3kNZgCDS62Zukng9tCZk4ExyCYLTpjk3+HuBrGvlTxSYI7p61kC8IwKlHXeEUk8GYBE7SP6cvrADHTs8UxKcwqin/GMAjZ7JOaASkeXxEK//hGyLg2G3nZxqaNf4TDc+SeENqCBDwcm6zSNYYvPyMCIeMOgACcSi4QiIg50msxWmaAOHX2RQBk962FNAYgV90P936OIMEo+FtWQOD+2Bj2mHOFrZm4VCQjWWN28JNFwiyTVkjrHYOgBelqS0IPRDG4EWql/Xsi0K5Fh6BF1ViZR1CzyhB1l+r9ykghx4CHsHz8bigHI6n0dZg/ZeuYFKBR0D8lTS8gXYBbtZ2fWsN6ULZA5PAK8HY9K7Fyg9q5kpYnwt4Ifhi8Qs5dx4yohp0CmppBDpB1EIAvF4EwCQgxJMKLArRyzIADsH99qi8LFweFW9rwCgEP21RuOmCLVIVvK0+ohCQqFpyBaKTsCPCJRjkd8AO4ImaVkzMERCPZZ37dDxzUXQle1NDwyYYIU4symJVNU1TqbiUbNtdHLpHGmuH42tz7dt8RXOV4Piqrg7B8bX14+8Xjr9jOf6e6fi7ti+4b6SzqqCuoIrbJh1+7/wFd+/H9x98QQ/GF/ShHN+L49z6kfY0JO3uR3LGnqxIuydLYvRkOcf3pd106837pDkPtzfPysrKysrKysrKysrqGP0Cne4umVeVsOsAAAAASUVORK5CYII=;" parent="1" vertex="1">
          <mxGeometry x="69" y="459" width="36" height="36" as="geometry" />
        </mxCell>
        <mxCell id="53FnnrvYB-HP6rrczW1--3" value="" style="shape=image;verticalLabelPosition=bottom;labelBackgroundColor=default;verticalAlign=top;aspect=fixed;imageAspect=0;image=data:image/png,iVBORw0KGgoAAAANSUhEUgAAAIUAAACFCAMAAABCBMsOAAAAZlBMVEX///8zMzMwMDAtLS0qKiomJiYiIiIaGhoeHh4AAAD7+/sYGBjc3NzPz8/n5+f19fXAwMCioqKAgIA5OTlBQUHGxsZXV1dLS0sSEhJubm6ZmZnV1dXv7+9RUVGwsLCPj49gYGB2dnZb4JAkAAAF/klEQVR4nO1Z6XKDOAwuPgkYh/tMgLz/S65lQ0MSp8WkO7Oz4+9Xi7AjS58u/PXl4eHh4eHh4eHh4eHh4eHh4eHxv0ckRZKOWd9nY5oIGW1Eonoj+FucxZjXJWIxD0MW8pgFZZ2P4ryIZd6e1HMQoAfBXyKZGh5TjIINEKa8baZkeUV0p7sgju+CP4LMSEu/FUAa3//RlvTCvFch+iBgmfw7HfIiXPbGjFFUlAoFoowR8xixIDc/J7vCCBZFwlXwKaIeM2Q0iFk9jckg5OUixZCMU62Oi40eZDKMfBX0f0DVVJ1H79bO2fAqFtkcGyUZS7eCIZtbIwhJ+rrOCedJ+wLF5STeHCmSfWleYvlDWESiL2MtCPPLJ0rIWhuCBdmP21zGQh+bNfJZoNaCOeoP2CFCYBmJs989mxEK1KHV0/Mo42YPizf3IcFAsLDbdQ55A7OhVw7Izgie9duJIVBKIL6b4hl4BYUvh1bmUAKMDlnjEoISrQO/Kwor8KvpqlYJcHyAolFNIEs6HUCA9cj1tYCIAtSwCH5DzyEHO1YCAcmU5a+CAQTh5KrEAJQ/OaebFAKztRiwgkLHXMvbVfmDOeuuKNoq0zcWQc/eCH5ApfyB6wMdQjQrBtgorXnG3YzbqSXtoQgflOnxbInuBKw0u2wlYavuiBJfXzfFqNBGgJs62Uk47DQpJ54OdkqJ+jFqCRNtJepANXAuIseUUMRWi0ubIEBOXBPq/W2AiOd0KF8ebCzdq7pBbJbXYbLfJZXa514ds4KQZuuetCSkHDcPkpqQ4rveDGo1swUD+CrcHyVjqIyxKj3pWrRZPcaQjnl23z2GZM9XLkiw5F16hyxQENoEdihyonJxYMJN21uutQh+BNCuXjk3usMMTov1zldkp2dUvhHYkdMArWluoqadZquHxnh5sJ5qWKYQsvwAcJvcbPsq9ewCK1Rko+v9b/OjKxH60Dyg/fKgapcpYUkwUae0sCab+p3ArsXGFj17skXaPqkl/iVb9MCLhQfCDETkuobApTSDRrgSJZqNuda8eAFe2LLTuUQuFXIEo68xkqkJTA1+92pdUTUGUnoPVUkYQoSvHpIosMcIpCGHGEkeIj6ZKb5t05ToCO22PYTMEa3v76uoora0UEGF2V8iIbAdQuoJUISIrW+HBFA4DCZQR/hBJaIGvWln1NRvrfnvkIX2VmUPtN1tHISIZr1F8A4X6EjqY7M29IrE1rpDF3ZymhRztVU8/v7eK+DE1tSUqpzrkC0Ag1qCmgNjzFmxwtorXqDaxI6dU6e8yw70fHn4xhQ3FTl0dtwNgjXgLlzSyCDfxxbnZzBkBS5dp8YIFZ07UqOCXsQWBylkY74/b34DTBiETmpUUHNsfkxhnKeHmvoGOovWQQ39hYA0r/2tLsOkPBT5soFGjuwNlHMe6s8Ur6Q4wzdQUjqTwkCUaH8KTRpwPUGW34JJGRUHlTApdF8plrcTtn1e0wCiuyXNRy3UIeIdthB5oLvTsLPOPECLD7SAXu7XmTlKb1R/Z8Tv0gu0x+3xL/NQEzbzbSRefCvGvG11w4fbeisVm4sJudOkbwAO/R47oj4guJinsUoGIYakGqe5IMwMCohfTUhfFgEmwbTqceGuiedRC+j8lkgdZsgGiFDeckoIDVu+XgkEhBWjeW24hqsA8Xrxwpm8aUT3oVcTQWByzcRJYAXC4alLl4TUt3gjwrG5J4iKN035PsCMpjNeUuqphHKCN7cwCJMwLrtxzWupecsIzIICuA09IDncxsJchmvIivA5NcBkGm91GWCqgYPy2mXJdwSKrmV3wdgTMB7W9wSz00z2BD3q3ZQh9EzIS93GnaXiH2CQj8nhIoZqKxgaPWczZQ7VuTm1vQ84w1x5y1vwAaHOvcZXps2B2jyHuffolSJooaJCZ8X6yLd0MWsr6og5rAWw00Ri7G4Ig75dQou69b1bSB14qO0O18Mv2WmH4g/qiCrXnPNix1XRDxhLtUdz8I7G4FJl6acXojLN0o9u7zw8PDw8PDw8PDw8PDw8PDw8PP6b+Ae+qEwJuXKhMwAAAABJRU5ErkJggg==;" parent="1" vertex="1">
          <mxGeometry x="69" y="489" width="32" height="32" as="geometry" />
        </mxCell>
        <mxCell id="53FnnrvYB-HP6rrczW1--4" value="" style="shape=image;verticalLabelPosition=bottom;labelBackgroundColor=default;verticalAlign=top;aspect=fixed;imageAspect=0;image=data:image/png,iVBORw0KGgoAAAANSUhEUgAAAIEAAACBCAMAAADQfiliAAAAY1BMVEUYd/L///+xyfkAcPEAbfERdfKnwfk4hvMGc/IvffPx9v4Ab/JjmvXC1/tWkvTp8f7L3fvi7P0wf/J2p/aQtvfU4/wAavFlnfV8q/anxfmMs/f4+/8AZ/G3zvqcv/lroPVGi/TA+7kwAAAC/UlEQVR4nO3cC2+rIBQHcDpgwhBfVVv7uvv+n/JKvV1rxbaeHSC55SRblsyE35QpD/8lq9vKdb1JJCeuistkU+t81Ca5/rjXqaRUcHeAnsAFpTLVe5ugyJRw2fgNQ6ismArWTHhpfijB1neCUlKP7ZuisrwVNJXPEzCUqJqroAwAMITyRyBDAHqCvAjWvvvApeh6EBQsEIAQVhjBPgtzDUyJbN8LtAoGIETpXpCGOwX9SUhXJHf4IHpeXOZEh/pHGIpqUgcW1GQTshv0HWFDkpDdoO8ICQnaEU1XJGEBJHj7sf6z4pwy1rbs37fzoN9nJ6Oiyradbsq+mkIfT9s/WSIJ9WTgjOyK8TzoPAHKG/3tg8DbTE9av5SPJz9L5tv3IeBq9/UA4EHAPh6170HAH10BHwL6DOBawLpnAMcCmj0FOBbw6U3Ir0CdngOcCnj1wilwKlC7FwBuBWVggZn0hhXQ+hXAKnX3dG6L2Vabbre9VOUMQOjMRfjaiYOiP+VwfTiZ+fulr+UQkdoB3Ns0mFrvBvtvf/Nw+y2587giRa0P5sTjUgS1jc5yT5sD8wKvK1JWwUcUREEUREEUvIuAK8UYM1/nUger4GB+pa6HIe5kc3n6HFdjETR3x3x2iNMF+dL8ZFJbRMHD9aq5wtzJhAnyCm/QBBOUiC+UwASYG9owQRdcsEW8RcEEmJv6MAHmViZIkOO1DxQUmFMokOCI+awECVB39UEC1F19kAB1Vx8kQF3PgAjyA6oAMELBfdGKJ+OqjpYmj9X4GEyA2VYelbKOVNXoGFzAfb3jfCEKoiAKoiAKoiAKoiAKouANBaCZBaoA9N46noBL2Lv7iIIEll/AE4gNLMOBJ6A1LMeCKNCwLA+awGR5QO+OoQlMngmU6UITnDNdkN0gLMGQa4MsOWEJ2gKab0QSXPKNgIwnjuCa8Vyec0UR3OZcF2d9MQSjrO/ivDOC4C7vvFqY+f61YJr5Xi3Lvf9OMJN7X5T9BwseZv9NDZ9/4FBg+fyDv1dGKO4AAYTVAAAAAElFTkSuQmCC;" parent="1" vertex="1">
          <mxGeometry x="117" y="465" width="24" height="24" as="geometry" />
        </mxCell>
        <mxCell id="53FnnrvYB-HP6rrczW1--5" value="" style="shape=image;verticalLabelPosition=bottom;labelBackgroundColor=default;verticalAlign=top;aspect=fixed;imageAspect=0;image=data:image/png,iVBORw0KGgoAAAANSUhEUgAAAG4AAAB+CAMAAADyU9RSAAAAqFBMVEX////tHCQAAADsAABYWFigoKD85ufsAQ3V1dX4w8P3srL2qansAAntGCHe3t7tEx3wVFXuKjH1nZ6/v7/sBBT+9fXzjI372dn1oaL98PHuNTrxcnPzhoifFxxGCAv2HSWUERcgICB5DxJOTEwVFRXxa2360dFzAAALCwthYWEnJyfMzMyeAw2UAACUCxGpFhw8BwkzAADawMHvRkryfX7wXF68fn/fpKSSf24LAAADfElEQVRoge3ba3eaMBgH8MS0MIU04AAFu7petFt36QVtv/83GwIJiVxMNPFFl/87Tkx+BvPEcDwCwHI5OjpPV0A5J3CjH1/Oyo1ulb2TOHXvNE7Zq7j7C9XcHudVnPoa+0nn96DUt+LUl9hFc0NVPA2ciqeDU/C0cPKeHk56AE3cg+QImjjZ+tPFSXraODlPHyflaeRk9jOdnET96eUOepq5Q55u7oCnnRteL9q54XrQz42eBkYzwA15JrgBzwg3uu1bL2a43vVpiOurP2PcpeWk8+trby4NcAO5spzlLPcfc85vU9yfWYdGjHF//ZbnQPLNFPd9Ge15hbY0yBEieE5IoEkOCl4xN2iW471SM8xBQj8/h+w00xwk1fpM/VIzzkGMnGJuqNIgfn65ubl5fXM05u21GPLlGUPmTRCsg3dZRq7GRMtyUCr4czDx4dniepaz3LEcQXz8iHBtmGsQW9o9q1dh4RVtjuRjLhPvOkOI9sEh35IECEVcz2izHreSC14HF7R2oknoU26vZb3gwKKG2wmIMgdAgrq5YgtcsU3Jn+rigId6ONBsgho5cO33cWCM9HNpiPs4MPU1cGmxrtYO65e4PDdzHG7MjAhcnDaR5mZl4WwddslxMUIkmMfsdvoC54UZizD2IFe+r4gKaSRwEBOUp9Tb3emGmyPMoshBVE8vzbDA7cZf8Xea52BPJLh1LbQ51gbWSBtHZxe2uWhTXzsQc9wUkSqtXfXwZ5fTEcWlIr4WZDw3Xi3q5ESeQ67ro4yuzHEHhzO6WHal0FF3c1+ac5IkmY5Zz1XUwYX0zeTd3FSeEzNz4Tm5bdTFHbqZx3IbH3ZwJKcbi7BUTuXSxd73HeW29Drs5hSWCkvsQRd2csirr8uiaQphc10lCeQLAcRFnPV8w59VBA5j+tFNhF1liqI6KmVeH6a4088exyZXVomeTYwPx2HiNlpaviWTXBgk4levSQ6wb9ZyctXwBjkh9UZ8Jm5RD3AWLt22zpnmuHgSskIxzcWzJEPN4Yc9I6hwOEuqbNochEmTTRAhlz9pkW3dsu3q2cNB3LMBlYm4kL1THSRDPfs4k7GcXs5jz+3ucpf28/wpKYd02eUcOOyx/f3x7u7u8aP9PH98Psoh39k1/5j2qX8lsZzlLGc5y1nOcqa4I/5icwqn/ueOgdwf5AzEcp+C+wf/S3YfaPcn8QAAAABJRU5ErkJggg==;" parent="1" vertex="1">
          <mxGeometry x="119" y="495" width="21" height="24.06" as="geometry" />
        </mxCell>
        <mxCell id="53FnnrvYB-HP6rrczW1--6" value="" style="shape=image;verticalLabelPosition=bottom;labelBackgroundColor=default;verticalAlign=top;aspect=fixed;imageAspect=0;image=data:image/png,iVBORw0KGgoAAAANSUhEUgAAAIEAAACBCAMAAADQfiliAAAAYFBMVEX///8AAADx8fGCgoL09PT7+/u4uLjPz89aWloXFxdlZWXY2NgSEhLh4eGmpqbr6+s0NDSenp5MTEyLi4s/Pz/Jycm+vr6xsbGXl5d1dXV7e3tUVFQoKCgeHh5ubm5gYGBZ2WazAAAHSklEQVR4nO1a2aKrKgxtHVsRnIfa1v7/X94aQAOCdR9t74vr5ZytliySkITA6XTgwIEDBw4cOHBgD3gkrBlrmjpMfi87ZLfyrCAvGuL/SDxl+eNsQpz29fe14bCXUbrE41Z9VRO0WBQvSLCvcSDa9MtX1xVvdP0lVd+4zjfkJx0WHjU08ca5+l4SMkzjybzdCbDrOHyaEeP4SVg8J45kX/nJfRy6WBy6uo0f7kqgGaf/2cucQmhrTzu40suzVaMm8P1jP/l+Lgh0q8MNjc4l3Y1AIlw8rebvPEoJocl3ozERBFzVAD6pi/uTWzy+Pl5tbZxzcGu3uoMnUgBTxNMij/VQ+LxnMysF7+eXjQzEKlAswHJdusSrVn8NQXRjsqphekjDXmsTz5dLg3/dD4+2RujonfrRLBolMT/K/HLJS+VZGU5f03eMbDcSOPlhOPlSEk1mL4uKJI73zgkOJfUtnRwD5aWk2jc416OQvJlZl2SjKtL9YoGKMTm6FgnhqCJm/mAVnMSygD2Zc6IF5yYyg5ms7xuhfkPbV5nmUWMg4Yn5mUIjliKTWKH9POhfFyNeXT2xGNX8bE46RH3WfwxxiSiiA/ywmQUwZUmJWVFcanX6wOV6+3YzJXQGsQpgXEeNdLohi9m8PNq49/yNV1FTxZwQtFB4zD4R4CO72jNtIfv9OUWx5u0yypblohSGjTID+pnA+eHJz7LEI9zpFzMKieaDFLbwy21wq4gR9QVeNyc2/HOlk9ZiezRzdH1xxBYvAf8qzO8GwIyjEzCRQ+TSNEaEWP8x9vKXSQ3JECvThSAC6n+cIKTKz8CVbCmlGgXmWR0SEgbFGI8fBkFk4Jgv1FEe/PQE85FTgATgmr+XISfFvjdu5wy2cwZ+8UKqCGE4lUFgZxBwSVe9bJe+8ZiLAqPdraGMllzaSgaEm700aLvmG6Zy9oKHg7JlgJEh4X+73ITVWgY8bkZGq1JOYeb1jtpuEBRq5eGb9zoGvES7meRPomauECrCejwX6T50JYMEPs/tJoX3l5mGlPlG/NkVPXoO0XYVAxer8TT0k7LOZSgpMGFTHSSK7QyuN/CqNQwgtiA7y7osn7IQ93uTeposy1ydQZtlLBBevYYBhIKntEGCHGx0TQhX1oBOdAbYXmsY3LEKkqlbgSjwba6tjAh1BtijVjDwQKaYn385K5DEYPHb8upWBvB7uRBEbHQZ41Rk2OXL4UsMwA1kLIDlzDcGNVaCBy8smXArA5wxeXQWRRNoXvRM/Bd6sTcDFzkZzPslXiTYr6EiqvXf7sPghsYGi8iC2oMFQBFPS3WzlQHMrkFfiAh/csD2DmLwJR1AFZLx/0PkkaUXD0PiK+gZWDZWWxkw9JR3d/jCcEo0sGKRvRmA912ww53voZMEPDgKxfP0aakKtzKgwwqUHR0ZlK8i6ckwCDRTM4HNDHgUkptatcYZW02wlbFtDjYzAFcc60CGGchsyCs1y1LYzgCS67TWp53L1NToloywnQHvDz7HP/26z8vy3k3lAOeYfY8BLzmxlT3HwX4PWjFtnPZiwJVg31HyJWpvc+zAgK/287zJA+CF7HzLsicDuWs0TdPr+btPO8SNDGRL6DbvaKaL+tmPgS8PHdWDAyK7jYtt5EUG8EAyYLrLY4ynaX3AT/0c0oyRYUkDHxhASpNJtV906enoNy7ze15OO8CrLRgKQLgQldVZZwDDisTH44ql1nsjULYKE/JPjXRYStdklHHFsYT3ZqLBDjzupAvdU890Ah4vWwAAiXRoZvD2aaS8FA3N+00oVTdC1eG2jVNoNyDu+PuktZzMigOaXmx3VKOF2oiaCoZkfMFL0AmLPAV3epT3TLl/Qd4F1NNIIVG6BnoGa/DLWF/voCK9eeOQsKpCqpHlczEvywrLmMUupIV530mEgeXePkB0kS0JchLyMGjJ473iWD+0G0DE74oP7X15FFXaeryOC5YoW3Mt6b3VGpoDeyiaHuWiGpgwdL6QHZK36ci/nAEmUn29ddnX8oTA3mraBG9sqJeNYQqUjU2VhTb2v8hFwqbi9PlqsCITwqaT6Aeyk7P9XL7JS+TVdLoNMtzFuRUty9pCvYuDryl05X3rkSe0RPDSCMz3sUbkKJ3wHdxGBkrfhKO2Hr1rTiqOzjYewEIY0FKET9zSJD5vFWGhMM02AnAPqZ8/9cLsjtuy8fPFtKt5MsiviKIf4IPL+/V8JFo1LCuKjDXzC4qJKFtje5XxNwztgscfZiOX7XO3U3iebW4rxwtltzPf74acqCyuay7d0TF0Wk6q/gljTjh3HwwbjN3e+EPZ+kegYPjQvX6Ehy/ndXvfk/LRHZg470LtooTv0KZHUSLfvgjncNQCuezdrKlCQqqgaTv1luaz+dJFMS+zbBRU5FtuoXyCH1w+iL/2e8UgKwfK0qtN/PMS/Ob6Ng1cQ47O2x/cl1ZptG3XR68ourlFVv3+6rrEr+6qHzhw4MCBAwcO/A/4DwdTWAA9BQtRAAAAAElFTkSuQmCC;" parent="1" vertex="1">
          <mxGeometry x="74" y="521" width="22" height="22" as="geometry" />
        </mxCell>
        <mxCell id="53FnnrvYB-HP6rrczW1--7" value="" style="shape=image;verticalLabelPosition=bottom;labelBackgroundColor=default;verticalAlign=top;aspect=fixed;imageAspect=0;image=data:image/png,iVBORw0KGgoAAAANSUhEUgAAALIAAAB1CAMAAADduUtWAAAAZlBMVEX///8AAADu7u5SUlIoKCjp6enQ0NA8PDwVFRXx8fEZGRlLS0vFxcXj4+MhISHY2Nhra2twcHD5+fm/v7+zs7NXV1eCgoI3Nze5ubmdnZ2srKxDQ0NcXFwNDQ0xMTGVlZWLi4t4eHjfu2k5AAAHVElEQVR4nO2cfbuqIAzAzbS0Ms1Ob5pW3/9LXgU2ttkj3VNX67ntn3OaCD8GDBiU5zkkPWW76WCy2xSpi8gh+X4ytETX/BnieDk4cSO7Z5hvYxBPJvvfE6fjEE8myacZ+Qkz57uxkM+/RR5n8LWyjP9b5HKTrXnGTsXIyFvfyxMys6y3MVcsZIqRkaNQ606gCBKhWJgU13dBPoFyKRT5wSh+QPGCEfAS5BCUxqqVVCxQ8QIzvwJ57YPyaAgxVWFKwRQ/74FsrWwII8zUWDnAFJc3QYae6k2lAhJtZYqxkWuTyRYUpVkhHkExN2+9oF+8yC/P291CTngOSnEi5bSKuHgB8aumkkW2v7E2j6Ri3SheM8f/x2uMIZEf20rlSSpkVo6FXM4kS9ixu18s63XEZbEYi7gZJwvBsg6WhU+JT69ZM/5jWZ+sibOxYR6VszF0fh6b5HHJ9Lj8IOKGuSU+utO9kzRLmdh4skORxP77SloEmrNx2TP93zn03lwSE1WZmT1E9dsZckDxNfLFLHdP7jfGF71q3HmV+rsaG+cRWSnUyFN/FrOxcR6RWaRgv8j/VL7IQ8gXeQj5Ig8hPch+aAQ3W6AIYeebE02M/z+QQcxelZlB8riTgQN5f5grOcDBUDLVinkNa5HZHDSJdwxM8imsrTLIIAOEqdEEWy+pzasHKPRSQwahzICdpvUgY4yqMgoMxE0Co8FA19L3Qkxucklx87tOWGGTNoLqY3SkMJnZvTKEIlGBwUoHcoJvmBLt+UclTxdujQkDUQDZ5xyFpo1G3uCDMWFSYfKr1oSoYav4vuEnS7QIYBm01KX5sIEPJ1lDoMJgY1NDG38+iEbFZrWtyrD6kHEDqxlCmycw4OcVBdJdNw9s8kAPMVaplQCiZ1g+ryE/Ze1Dxlf2/GNrGTXEfFYqGmWtABOSXHctW4ktq696GNckecErwXcefcjIoCOQG5LnJOWQqhUwEubLGupCsYb6DAiHm+r77DrCRlUCQ8BbhtWHnKBV2iLCOc207bx29OlmwOQqGxYXUU07g08BN6J6mx2tlKpAGH0Bv+TQO/vh6EppgUqW7XOMiOnxeaP1SQ40+SHxxOgj/iNjZWGl0e5LTtWLjEiFNIM6ebItp+8uoZduGVYsuRqf2LO0F7RITUcKA5b8JLN7FJm9xPNsi01hZjCHfTjg2lC2OKm8NqMPa6gb2qeNKE6D6m4NH0NGhrIxKc+zZUBDGjOE0Bea6dsTcd+AdJVDKBpx1T2LbQY8RuLFfZ1e5BjKDXz09GfjjOrc9s2LSY92WWENl2DK2NZwY5JjVzt5OeQKg/bHer2FiAf1Lz7BDs2yAcb3CnShtRK8hqYqsIaXS0fVNpAuGxRnbM8M6rW3C5JMnJj0I6MdixyaybMMuASAPNGOezT4DLg21qmBm81BMcGCLjDBlPZs8SKg+pFxrrigGdA2Z5y+auxIoDn4WENkiLFvYkOjH8Rw/AybLkFzHf8KOYEJ7QatekKGJbEpCNodHNjZTil2esPk1u62hkBa3Mw/C3lbzrGRgiFQmzzbtbCxQ4TTm3VCUMwks4+ggXFs3jA5TibTCGs4M9UuYbKtJZMDWZ74NH6iE++v7FvyrL19NKuEsrCFy0dNDfNa6DqX5RzIkqH1wEnEdaV1QvKq5TSnM4gRe803FoegUXrHSoVkciBLhnYoxOJ2IjEDXzqZPnDjujnZYogjpV1bedmInYvMDmRfNJMqTsxU1AkJE6l4tVht0BWDuBlzVdXmuqBzFOJAzjmDvlLM13Qsji5qo7qMmOqvtPQ7OYnzRzmRuEMv3A7GoHe4jHCL7rSSM9D1es6eTO4VSWv4GPKWvW8MyjpzSc3AGcwGiO1PJiw5WyVP71VbTiRuZNazKlMcu4XDLxmzBdzqHgNLzjqS8Q05c33dUz1nTI5ebdjBSzRT7oToPvlgapjTDcqNJWdOFEqnHanyOuJEpuMP6Og9mIqfYlEG9H7nO3mw4pWUfl8ef4FM30cXeSOm5KtZ2gDYDamr5UXQBkD703BCZyJ5AJlMJhgfpIOy5MnpZILdkAyIueibZGrEGsZEeYfIiUwYrtY4Nk+5mrWdYIq+gbha2dDEm1hXYgdlfedLD+6QuO3MxN9YO8gDWVscqYx1tfJLDHYyIVt/24jnO3e43Mjpysg2dyiVhFt4RLpAiMml1XJMnjqUf4H8dvJFHkK+yEPIByN/3K2X6vPuFk3NpBV90g2uj7knF+I9OQgp1O99GzEpzJZ/eScG9OaiHMVH3azVUfX4g5ghuPE5t8Qz69iKuTv5+DJnJ1Tx8VwHayk6ZRUMKHoyrjoo62D30507/ERIqv1fNqDzM6HAMpUs4WNfjjFRi8yd8nWiQ/7PfuHoi9wvX+Qh5Is8hHyRh5Av8hDyRR5C/lvkewH1fybZc8jwu0XRcCt8e6Pkl3Lr7GUGkt//CNcH/gaXN/yvySl54pfOOvdchpHdczHNy+A/LLC4POuh0mLzZr+N+AfH2IHR2TfVBgAAAABJRU5ErkJggg==;" parent="1" vertex="1">
          <mxGeometry x="114.55" y="524" width="28.9" height="19" as="geometry" />
        </mxCell>
        <mxCell id="53FnnrvYB-HP6rrczW1--8" value="State Supplementory Payment System Data Integration Reference Architecture&lt;br&gt;Implementation on Azure" style="rounded=1;whiteSpace=wrap;html=1;align=left;fontSize=16;strokeColor=none;fontColor=#CDA2BE;" parent="1" vertex="1">
          <mxGeometry x="64.71" y="72" width="601.29" height="60" as="geometry" />
        </mxCell>
        <mxCell id="8jS6UkBqUCnionH_lNcG-1" value="SSA SDX&#xa;Fle" style="shape=image;verticalLabelPosition=bottom;labelBackgroundColor=default;verticalAlign=top;aspect=fixed;imageAspect=0;image=data:image/png,iVBORw0KGgoAAAANSUhEUgAAAHUAAACBCAMAAADJ2QWBAAAAllBMVEX//+sAAAD//////+z//+////fv7+8MDAz4+OtAQDseHhzS0sRBQUH///L///RTU0xkZF5xcWz09OPNzcLJybqHh3wYGBerq5/b287b29uXl41eXleQkIVFRUD///vj49exsaq/v7ArKyc3NzXv7+O3t7epqalMTEZVVVWdnZ3l5eV0dHSPj49sbGzPz88vLy9+fnfDw8Pf83ktAAAE+0lEQVRoge2bi3KiMBSGQxNalIIVtSJeEMtqa91u9/1fbkGSECDcTiLd2z+zM3QM+TZwOP9JCOiuWedHQ1Gvkl5RM3T1rAqVYluoL+pQw3jvSf2mA2oYl37U79lZDw8QlnDWWy9qdlcDD6Z4xLHHPtTslJhgkKycWsL2pxb/C+T6N5KpQDW+SajnlUzn7ISZ3yKPtFONjzJ19X0MCReukScbLaXyoFoVqW9KyFRbR4Kl1HFEG43vRao61DBObhXLxhraFSy6W2mAGsZTdbSM6ptz2uhHTn3XQjU+SRnLqdjd00aPnJoF0mECFMdunFoqcgLaiDoBus9CLHQISDgf7dKtpSJnQxu9F6iW/ElvE0bCRY6KWJGKnSltdNFNNeaFiyxSETbXtNGbbqphi1hOveZQImI1UUcSLKNGLHGyEuGoixrTlHrwc2wpDwt++1MTdTejXb6E3AnK1FzPmqiuG9EeR7wnbNVWXZqoJsqxLCVjMpEidVKRu6RdTlhudCIpUisVOQw7zbHrcgJ90E1F7oJiFxyLSwWcM9JORTztbXhuLBVwplbq7moFjsuwgSlvr5e6pzoeKHbvStvrpVY1F9xwOKrhzaNMc6FwvTk15pnpkBeueqjIradu+WHALUETleylyCJ1r5uKTHuzKCnrMWbhbKxz99NFRaRU5zlO5rUWy0dYCGJt1LIwzqgeT0jCjwNQJT/+XlTsuAAJsxwIlYSVkOyijVAu9afiGLTckswSOQRAJREMmmZ7hbGGUGqoMNZksONniCKV+5pUISZIuZkxqrVjctqpymLUPA9vbpCHa6m55+SXf0iqdn9toOaznFB3LVFP9ZabINUm8HXXTVIspTpM2mtEGfTPcbryzKSj1KiYxKDFdoJVqITNBntqoZKHiV3bb4t8BaeDU20Vf7WeYNAnUvXX7pUptuw5QLZVjaaYqYPTYeCKLSpT48mBalCny1fW/iWni4d0uiDTMh7A6Xi19t/paqiw51WNih17BpCt5HQYs5XAnppK8nBn6td4DpnXdntDKqpfq2/WWuUKI2z6M7u3Zr5ZiSaLz/e6zOl0PTnx+oVq/zVON/vrnS4fqz/gWBdTKnvA+2rxhTch1H4zz/ka6lfM6RCxQKquN/XKw+zFYk8tBWx/z/FhUMU5HdjplNZMrW1tv406qawPI+xFS4AiT23NFDsQSeZ0naiSJjD1ocJWha9yCZj6BNfnvLCNqw9VSRMPmBEVxpp0NDFhVJX7GgjVMCiG+VoILxXbHTDNLIGwwaj388o3tQV8l7Qv3UNaoOK1+EIBQA04dTsodRKHiTwzuWrh9agNqoW6NrMNK1tj6ZaW425J3aVpFaVU83o0CPV5cjqNAiehHk6n04vdjtUWTZ+uSaNpPgz1lK6Z+iShLtIj6bn6qevrVqXsvnZKEppiOPs5oZa35v4JVEtWrO9qMuKJUg9ibgWNVSb6Ar2Y/XHs0wxIfL9DIGUnybN/kxjVzUyL/hOPWpXuQ5xVna5B74w6hWuSbrxHfagrLRXMVlbB1OuN7x+GboFPNN1Lq7VaHfO90ioVTDGVNFMfL/fivvBu8dolpCk1/2qjqhu84SbdqcCPDKTqQL3LqEH/Jcs6Ubdspip/HFgTNg3QhKrpm7myjs3U2wx23ARNqecfN4Ce26h3Z+D75Xq9NkPpl20fl9dHbXq9fDQzW78JvZF+ATzNxiZx9xATAAAAAElFTkSuQmCC;fontSize=9;" vertex="1" parent="1">
          <mxGeometry x="108.35" y="320" width="32.65" height="36" as="geometry" />
        </mxCell>
        <mxCell id="8jS6UkBqUCnionH_lNcG-2" value="ADF" style="image;aspect=fixed;html=1;points=[];align=center;fontSize=9;image=img/lib/azure2/databases/Data_Factory.svg;" vertex="1" parent="1">
          <mxGeometry x="230" y="204" width="32" height="32" as="geometry" />
        </mxCell>
        <mxCell id="8jS6UkBqUCnionH_lNcG-3" value="Landing&#xa;Zone" style="shape=image;verticalLabelPosition=bottom;labelBackgroundColor=none;verticalAlign=top;aspect=fixed;imageAspect=0;image=data:image/png,iVBORw0KGgoAAAANSUhEUgAAAIYAAACGCAMAAAAvpwKjAAAAclBMVEX///8zMzP+/v78/Pz7+/v9/f0QEBDFxcUNDQ0vLy8pKSn39/cjIyMsLCwAAAAgICDx8fEXFxcbGxtaWlrd3d3Pz8/p6em2traenp46OjpLS0uSkpJTU1OwsLCKiorj4+NBQUF3d3dtbW1lZWWnp6eAgICkoP9sAAAKcUlEQVR4nL1ah5arOAw1LfQSAoS0SZv8/y8uYIObZBxmdznnZeY5HiN0daUrG+ISQrxg/PCGj8AfPlx/HPSXbwJvHnR9aLqHriEMomu44/Tx8s2Tg2WyO/3fl1dgRkNr0HvJT8Jm8sHpA/WFugKRBoXnUK0wrMGd7CkLYytwX/jYY7ug861Q9bQngVaAEbGKC+GGgC/UwcCb7V3xpk8kRBTXEdwXhrhQERm/sfEm4As4Os2IqGFktMKACHhDEBHIF1psedyfgBUAR1ycIzzcVkzTmSp6zSYu7HxhTiKq0QrbNyACEwci5Uo6FCLIxorvOAJnLRVV2UEEi2+BqShHvrACRYTO/AtHDLUIGgT9OQ9+iQjoIPus5WGZRRn30SD6giPfITIHhz0ifLplLUL1hTDoS1asZ62qDZsqpX9kpy/4TKCaiWugWUuffCuiXRGdP6G3TV94EPkCtoZ9ZX8lznDFSZ33k0vsEVnLOR4dsuII6UuHXfvr3a6agYpPD/vxzyFvApNd0kazGU5y6giICFjuBY7IgwF30DwerGatNHO4HQdijYiZqXQNOrlq7hWAiMyy4J1zO3ah5Hy7yg7GhUtXHyaHWVE8LilR3KBGVi+4I35o0+0rOyfO4s9x/Dw8Zlw6LYYIHRys5WY45Q+xQMSDOMIztYDq8MvPtH7uNMZqRirRDCdp0cwHIIIwdbF3vMLdtHB+Jh6ACPfmORbNOEv5Dcp8cNaSObJY4ZMuYfnggvuCe22+6l8iP+FXlV02elqhus6P2Zj6VHIsRTOcvFtcrFphnbVm06bxJ3NH9jL1qaSRrHCy56ri05oUmTh8+qRHf+fHrI8E88UwmF5jyY5hNugLlKn+EkFqGI1DpCmWdOBrvhD61Nlr8+xTilohZxIDRwRh7u7mlfe/hnpIbnsFlotJ8eGpTK1FAZt8WPJ0cicIfAObu0I2w4kaAuoLMLaArMXqmcd8dlmoOESpZLK0c5A+5OBwkncKILKhp6FFXKBi1hrK/UcOjiGn32z7VLncu4qD6A3vYty5SkYU9PNvppjh1BUxk1LMWhBHuDAnUp6ueyguqHJtatWM5EkAjoB1RI0LAabZZImKHYppoHnDiVoMEZgjACLDByviN+Exh+womCyz7JCrZsTnlKzpCzBrSQ5i9a8Ry0UWQo6j0kdDxSkvhBg5AmcSQAYGpBOpmD+AFejkttTMcJIGuJe0l7M8NoSIKIm9l+jtMZeCXJfNnc042PWpBh2/FPGLHHw0lwIrvLXgGKL0RuS1wT7V1E3Mbc6swOYHvPZNOpURFdOLzpWhIC7KQ+1TQX0B0HdWfKlcLuKyOD1vDUVNVGthpJvhlB+T4oOrmS6JJ+s00OMkq+NPeKdygCWoRTAqdoTEmiOeC5g2T9bLxXRl+9Ph0lZUE4wA+gc9Rkdu8eiE6gjOkcUKFhw3AHR6izJyXv2IjzvpYtDcfQ9EJ6TB4XLPHdeCy8+mZLv6dWvGqn4EMsfotoZYMRVCxBcOMtKTwYzxSmrn+gm7+w7+9k0AK9SsBZa4WRLTWquXC+2Kkyh7IdPK4zaOsNCcMRW2UYwXauyeNtdrig80TRgPYW9bX9mHQHGhaHA4rQvxfTfFqM1Vtxs4wkzj1qVgRvjiys++qU9FOMIlMau1z7+6I+u1E1VMrat6jbNs6N2SP/qjGEsc2qcayr00ufmcizr/gynJi9AqBfapWFxwSTxn9vT++zpn5XoGQa780DcVXdeSIyxutT6VVG1/rctsmyl5vTs/bx1F2YojRDnIEE8V0vBy2O+2hUqc1MXp59gtj7eGyBwc0Ak38avwc43329gTZ1l87dvJFGE/CERElMSA+h2d0tzeSbYRn7isH8/f+4T0ii94EIGVaPJm27+yKNuGT14Wzuc46esVSYyqNSFiqvZycOqNpiRZfv4JqVfgPdMhKPA3YvjkUXV59/DzSLKtoVKf3n2jnUwJGw1WtGapoLk9k6LcluAGfOKJyto2PwtRg1oL5MmTV/rXYyM+TpKVr1a5pedqVggqHtokYFfQtZdrnm0zJUleDd2vFXpdb7X0iVaEfR+yckjux59Tsd+S4JLop5JuOcan9XkqaQeuZPWj5UXxfnue9/X3WSXLj0xh0ETpCpJ47fSuzaf75XVDOKZu1fSHU/JtgovLySHyLrGh6xcQObFb5Yd0CVnqlS68XL/Fpz538xqwFfBZkXC0FDVLIUi7ivqTVMfPta6/yCp5HRJOCEtEfHLjp7BHdjLR/Zwfj4mA0xpVc3s9cmutEmc3IS8YOCIlEd7iDmZMvrjHZRwPDdRNODQZtUphKxD2v7y7t0Fk/OCbXjXdaqge7Lmjybtsa3u0edAqiZUpxXQ+tRwhrCEyzbsy4JMXjYvjfJowHQ0LGjwYY+b4POflaqiMDefMfrt3DkiTTKsmEVN4vJ3IK6gZ9Nvf9z5aoTLbBwjMdUSCqXsV0W73msXdWzz7QPbByaBVEpNWiUt2AmE4qOMPR5/Qv4dhtyjoD9+WSQNMgw+/V+3P1UHxGU+VlXd7cM3IE687W8H34uadDVSDE785PrMdjE9GXWmBCHxK478od+Jpk3h95+DeP51Izyr0kN3IEeFNEuA8NT3USZzXp5Ag9mpOHrLK+6RolfxKCH+3x+rNB+WJ/eP7dL10ZkRUVO/hj1OXPKuM/aYiidEbwmdFMx0s+9Qlvw1a5fOImJaMWnqQYcydkn4WEflqL0dAlRWyoQPq34+srvcX1kTrjlOfw0MdZLuXI+tLlmpJ1x5vLZfEhgPcgCCIYOepJiv0rn1eWO7aQKaa3gJBQ8BYrDXFP37g1Uz0BRiymL0GRLRnZt9oJnPngxyZBqFTGtwK+C08eY0NHFkjJcQR9aQHO0Kwy1rCDW2YivLMxgo0a+G++JIj2g7dV9VsJeYgRLSTHsToQF1WudfK6Z0VRzwAESUK0YfD64hddCpr8DfKwFNyIyKr56lmROx5BiGCsgzmiFmvsWqGckR6t2eVIxuylvimBs4RtgaYtUCO2J8VbXiTBEcEZqrCERARVV8gdUT0py0iW7IW4jXZF5IVrqGabeGIRTVTDzJAb4KY2nAE5BmWtRZO23FkU9ZS4gLl2fjMEEf+iogS4XjuFI7Cxp9yJRK9OX5Mr6PRvaUJq2AadJfBYBkMlOn8G3yQH2SoOmmxYvgxXOn4L51/Yx/q//FB8/RJd5krOwmTIjJdO+O3NtOL853CAsTLrPf9819PZtev8qVKYjXjuOnpj+eyFldypSzBmDra91vs/uMr2rV0z8RUR0gT/tdX585WoPqZ9+z/3TUx1/u/NbiSI5c11AMkgwZf6YrQPtWQO5dBtElRq9nf+1QpL+hiFFa/3yECo4pXMwWmZQWlsq++04hqrTV1APnC01cQb4gp1NU+9esI/9c4soaItrUirWFQv8TCF/Y6HkeEBcf/1afiviCyN/Eb2iAiTv+ys7Jg6orimwZhBW2LyCiJVaZ+xxFBg+N9qrlhI/NBxr/Yp65ocHSNlbhYQcSGI4asFWhW4H2qVe5c6VMNZXIaNMInOMhQuLgV1muo2cn7B6s/nu/ZNd8sAAAAAElFTkSuQmCC;" vertex="1" parent="1">
          <mxGeometry x="354" y="329.5" width="31" height="31" as="geometry" />
        </mxCell>
        <mxCell id="8jS6UkBqUCnionH_lNcG-4" value="" style="image;aspect=fixed;html=1;points=[];align=center;fontSize=12;image=img/lib/azure2/integration/Event_Grid_Topics.svg;" vertex="1" parent="1">
          <mxGeometry x="228.5" y="422" width="33.5" height="30" as="geometry" />
        </mxCell>
        <mxCell id="8jS6UkBqUCnionH_lNcG-6" value="" style="shape=image;verticalLabelPosition=bottom;labelBackgroundColor=default;verticalAlign=top;aspect=fixed;imageAspect=0;image=data:image/png,iVBORw0KGgoAAAANSUhEUgAAAE8AAACCCAMAAAAwnGXeAAAA1VBMVEX///+goaI+Pj5ZtNk5mca41DIAAAB/ugDR0dGdnp/r6+wuLi5FRUVGl8Bqrsvn7O/O4ewlk8P5+fmOjo6x0AC20ymoqKgXFxf7/fbi4uLY2Ni7u7vGxsby8vKHvg05OTlra2snJydOTk58fHyFhYVjY2NZWVl0dHT3+uzw9t2+2E6WxBvQ4ouGvTA+OTU+SVCYo6l7rME+NCzg7LTW5prM4HvE22aozSenzBHH36iSw0htsgDY6cC31pKoz3CBux87YXWHqLg4irA4dpRWpc2Twtix1ORRZOLhAAAFU0lEQVRoge3Za1ejOBwGcMCa4VKrkkoFwnAtaHXrtTpWHS9j+/0/0v4TQgUaelln95w5y/NCAyY/kpCG2kpSmz8sx5/5knNyenM7uRvtHvWLHO2O7ia3N6cnW1unN5PRUf+IZrcSOAHuaHJzugV2zqzd5gB6NLrdjDwdrbZK5mi9eHzX3wTjZH+y5hYdjzbXmHi32rvtb8Xt7vZvVnp323UPOjj5b/rnmMIO3t+fnZ19LwLls/tq9/j8mXrNI4QXzvn9vQfmmzjfC/Wof85bqXVPDXkHpdO7/o+zJqqM/uhPivVnasteVIDSycP08XEN9/g4fVi8jD152TN8g5SOn56nK7Tp81N57jWRpyhhbFfOnTw9PP+c/gV5efn28gK/p9Ofzw9P1e1FdzVZ7Cl+GDuSIMcnNMKXFmjANXggGqlli9oJo6sW05o9KhqRRkxh+3JMm8gcW+lR0g8HSmwtrakinq26YC2wdR7vZzgIoyDGsuUSQmzbdhxVJa5labhqbebxnvowfiMMDW0RWZQNvUW6QqX1Wq/1Wq/1Wq/1lPHv9cavFyLv8u0fehed92uB19u53MBz6t5Y2et03sdL3tXOjgC83K95B+/l6QLuAjgA+dlumVsG33aWvMPO6/VCHF+/dvLs5We5d9nbyXNV4eAiAq/z/jq+Ho/H19fK63tnEXaWeW+FxsSij5esyyKPNv4FKWGd4uzbVRlj6fWurhZnG7ym7C1ptbRe67Ve67Xe/8Pzap708SVvVufWdHCdJ/i8Zr4KXOPVZ4/3sFlc6fWWJi+POWsEV3lzsUaz3+uIyWZv3tC5Qpx/iIbd4M0O1n9wBmTv8LCGirzZmq6VczCHkZfQujebC2/pypgH8/ms9/FR9nqz2fxgf4NBroTNfRrT/KLT5t+OLrpDBGOsubV/cBzBh7sE15sjVeBhFAQRQkm1prxcUUMbeRqiP12UVWpagoqDLTwA4Y/ZAKEu/E6R0TWIlNDDxdcOhWfCaNDQ5p7XxZJkpwhFdsWT6IgzV3VipEsqSghMacIPa15GVCcyTOaZaAgmwrYdI6/ipcNiFKQyXuSKxmsjm3khbRUPSxULL6IXwj6MxS08Dyv5YdWz4xBOU48oTBoMYY1ghKvjxZKOItfxFh47tJc8gjJiO8zjywIF9PsBTS17FlTIiwtPGwjHm6bsWtTTHAaG+HMicsSTaW8xLToUGNBqOIQfasn7nBh2eTp/hK5UjR5Idn6DMVJ8A7EO2UiJo5ACGixywg4Hnx5i3ze4BKWxH3IP1hm0jFCQpLyiakH4wnSyQJZkeh0rwbbkxIFsWsV3SqyiJTsSCTLX1GB1sI8hCC2RJMOixd2mzTax0ihK6EJSN39zsiI+SrTEQE6+aX05Wr4lErthK982waAo+cjvGrakDxFSoLdm6qpDX5dhg8p3RgsKWQQFO8prCCMji08bbBsq8cwwcmAftyUzDI041jVLdSw6ExqyHHWI6LYFOz1GTZNNuxMwk43XZRX9GLx4UUdJ4Hmhsb9KUkL3QmkgeBrmsa3ER6HO70fGaiehZPIWmgJPvFhimzPzut0kiZPaw7sWB1rkXsCeDrDh5p6pDCzHi2LYY3XuKUOrtN3Vw583UcC9RKGHMO+5R9jw0xj2XZV7USyW8gRu3j+Xv+FQaTsdioUHw9TpVCpdz3QiRO8zvbd6ww0OUDiMU/bOI0ZB6kgJivEAloXJVolpoCwN6Ww4dOEEiDWhLZruh6MlCc4vBhs+3cfjLF9v7KSHM81z2StHVdl4oYCTr+/0bKKjbF21jeOiAN46/ZYtg0W3cOL+if8+/A0jO7aUbtgUvQAAAABJRU5ErkJggg==;" vertex="1" parent="1">
          <mxGeometry x="354" y="195.59" width="43.04" height="70.82" as="geometry" />
        </mxCell>
        <mxCell id="8jS6UkBqUCnionH_lNcG-7" value="sdx data in &lt;br&gt;RDBMS" style="image;aspect=fixed;html=1;points=[];align=center;fontSize=12;image=img/lib/azure2/databases/Azure_Database_PostgreSQL_Server.svg;labelBackgroundColor=none;" vertex="1" parent="1">
          <mxGeometry x="616" y="172" width="35.25" height="47" as="geometry" />
        </mxCell>
        <mxCell id="8jS6UkBqUCnionH_lNcG-9" value="SCO DATA" style="image;aspect=fixed;html=1;points=[];align=center;fontSize=12;image=img/lib/azure2/databases/Azure_Database_PostgreSQL_Server.svg;labelBackgroundColor=none;" vertex="1" parent="1">
          <mxGeometry x="553" y="198" width="35.25" height="47" as="geometry" />
        </mxCell>
        <mxCell id="8jS6UkBqUCnionH_lNcG-10" value="SCO AND SDX&lt;br style=&quot;font-size: 9px;&quot;&gt;Spread accross different domains&lt;br style=&quot;font-size: 9px;&quot;&gt;Line of Business" style="image;aspect=fixed;html=1;points=[];align=center;fontSize=9;image=img/lib/azure2/databases/Azure_Database_PostgreSQL_Server.svg;labelBackgroundColor=none;" vertex="1" parent="1">
          <mxGeometry x="668.31" y="309" width="35.25" height="47" as="geometry" />
        </mxCell>
        <mxCell id="8jS6UkBqUCnionH_lNcG-12" value="" style="image;aspect=fixed;html=1;points=[];align=center;fontSize=12;image=img/lib/azure2/analytics/Analysis_Services.svg;" vertex="1" parent="1">
          <mxGeometry x="597" y="431" width="31.5" height="24" as="geometry" />
        </mxCell>
        <mxCell id="8jS6UkBqUCnionH_lNcG-13" value="" style="image;aspect=fixed;html=1;points=[];align=center;fontSize=12;image=img/lib/azure2/analytics/Azure_Databricks.svg;" vertex="1" parent="1">
          <mxGeometry x="639" y="432" width="18.47" height="20" as="geometry" />
        </mxCell>
        <mxCell id="8jS6UkBqUCnionH_lNcG-14" value="" style="image;aspect=fixed;html=1;points=[];align=center;fontSize=12;image=img/lib/azure2/analytics/Azure_Synapse_Analytics.svg;" vertex="1" parent="1">
          <mxGeometry x="666" y="430" width="22.61" height="26" as="geometry" />
        </mxCell>
        <mxCell id="8jS6UkBqUCnionH_lNcG-15" value="" style="image;aspect=fixed;html=1;points=[];align=center;fontSize=12;image=img/lib/azure2/analytics/Data_Lake_Store_Gen1.svg;" vertex="1" parent="1">
          <mxGeometry x="362" y="285" width="32" height="26" as="geometry" />
        </mxCell>
        <mxCell id="8jS6UkBqUCnionH_lNcG-16" value="" style="image;aspect=fixed;html=1;points=[];align=center;fontSize=12;image=img/lib/azure2/analytics/Data_Lake_Analytics.svg;" vertex="1" parent="1">
          <mxGeometry x="705" y="432" width="26" height="26" as="geometry" />
        </mxCell>
        <mxCell id="8jS6UkBqUCnionH_lNcG-17" value="" style="image;aspect=fixed;html=1;points=[];align=center;fontSize=12;image=img/lib/azure2/analytics/Event_Hub_Clusters.svg;" vertex="1" parent="1">
          <mxGeometry x="600.44" y="467" width="24.62" height="20" as="geometry" />
        </mxCell>
        <mxCell id="8jS6UkBqUCnionH_lNcG-18" value="" style="image;aspect=fixed;html=1;points=[];align=center;fontSize=12;image=img/lib/azure2/analytics/Stream_Analytics_Jobs.svg;" vertex="1" parent="1">
          <mxGeometry x="639" y="462" width="29.31" height="25" as="geometry" />
        </mxCell>
        <mxCell id="8jS6UkBqUCnionH_lNcG-19" value="" style="image;aspect=fixed;html=1;points=[];align=center;fontSize=12;image=img/lib/azure2/analytics/Azure_Workbooks.svg;" vertex="1" parent="1">
          <mxGeometry x="685" y="465" width="20" height="20" as="geometry" />
        </mxCell>
        <mxCell id="8jS6UkBqUCnionH_lNcG-20" value="Dash Bord" style="shape=image;verticalLabelPosition=bottom;labelBackgroundColor=default;verticalAlign=top;aspect=fixed;imageAspect=0;image=data:image/jpeg,/9j/4AAQSkZJRgABAQAAAQABAAD/2wCEAAkGBwgHBgkIBwgKCgkLDRYPDQwMDRsUFRAWIB0iIiAdHx8kKDQsJCYxJx8fLT0tMTU3Ojo6Iys/RD84QzQ5OjcBCgoKDQwNGg8PGjclHyU3Nzc3Nzc3Nzc3Nzc3Nzc3Nzc3Nzc3Nzc3Nzc3Nzc3Nzc3Nzc3Nzc3Nzc3Nzc3Nzc3N//AABEIAKkAqQMBEQACEQEDEQH/xAAcAAEBAAIDAQEAAAAAAAAAAAAABwYIAgMFBAH/xABBEAABAwICBAgLBgYDAAAAAAAAAQIDBAUGEQcxsdESEyE0QXFyshYXM1FTVWFzdJKUIjU2N4GRFBUjMqHBJEJi/8QAGwEBAAIDAQEAAAAAAAAAAAAAAAUGAQMEAgf/xAA0EQEAAQMABggFBAIDAAAAAAAAAQIDBAURITIzUQYSFBUxcZGxQVJhgcETIjQ1cqEjJNH/2gAMAwEAAhEDEQA/AMyPmieAAAAAAAAAAAAAAAAAAAAAAAAAAAAAAAAAAAAAAAAAAAAAAAAAAAAAAAAAAAAAAAAAAAAAAAAAAAAAAAAAAAAAAAAAAAAAAAAAAAAAAAAAAAAAAAAAAAAAAAAAAAAAAAAAAADLxLziyyWSRYrhWtSdNcTEV7k60TV+p3Y+jcnIjrUU7Giu/bo8ZeT4zMM+mqv0p1OqdB5nKPV47XaPGZhn01V9Ou8x3Hmco9TtdvmeMzDPpqr6dd47jzOUep2u3zPGZhn01V9Ou8dx5nKPU7Xb5njMwz6aq+nXeO48zlHqdrt8zxmYZ9NVfTrvHceZyj1O12+Z4zMM+mqvp13juPM5R6na7fM8ZmGfTVX067x3Hmco9TtdvmeMzDPpqr6dd47jzOUep2u3zPGZhn01V9Ou8dx5nKPU7Xb5njMwz6aq+nUdx5nKPU7XbehacbYeus6QU1dwJlX7LJ2rHwurPk/yab2isqzT1pp1x9Nr1Tk26p1RLISOdAGAAAAAAAGKaRsQyWGxp/CORtXVO4uN2XKxP+zuvL/KkvofDpyb2uvdpc2Vc/To1R4yxrBmj2mrqKO6X9ZpXVCcYyBH5ci8vCcutVXWSWkdM1Wq5tWPh8f/ABosYsVR1q2V+AWGfVbPndvIjvbM+d09mtcjwCwz6sZ87t473zPn9js1rkeAWGfVjPndvHe+Z8/sdmtcjwCwz6sZ87t473zPn9js1rkeAWGfVjPndvHe+Z8/sdmtcjwCwz6sZ87t473zPn9js1rkeAWGfVjPndvHe+Z8/sdmtcjwCwz6sZ87t473zPn9js1rkeAWGfVjPndvHe+Z8/sdmtcjwCwz6sZ87t473zPn9js1rkeAWGfVbPndvHe+Z852a1yeFifRpbp6OSexNfT1TEVyQq7hMk9nLqU78LTlyK4pv7Y5tN3Ep6uuhz0VYjnuVJNa6+Rz6ikRHRvdrWPVkvtRf9eYxpzCptVRfo8J8fNnDuzMdSpn5X3YAAAAAAAlem3y9nToVsu1paeju5c84R+bvUqfSplSwonIiMbkidHIVq7Ou5V5y76d2Haa2QAAAAAAAAAAAOlAyk+AkRuk26tanBaiVHInbQtmlJ16Oomfp7I2xsvyrBU0iAAAAAAAlem3nFn7Eu1paeju5c+35R+ZvUqhTc2i7CbCs3eJV5y76d2HYeGQAAAAAAAMsR0i4qmw5RQMoWNWsqVdwXPTNI2prXLpUmNEaPoyq5qubsf7cuTem3GqPFg2H9I96guUX82nSrpHuRsiOY1Fai9KKiJqJvJ0LjV2/wDjjVPwcdvKrirasycqZoUyUrr1v1DEspPgP8z7t1VHfQtmk/66j7eyNsceVYKokQAAAAAAEr0284s/Yl2tLT0d3Ln2/KPzN6lUKbm0XYTYVm7xKvOXfTuw7DwyAAAAMgYAAjxZSnTbzm0+7k2oWno9w6/OEbm70JmnQWNxS2gi8lH2U2HzSvelPR4OSHmWUnwH+Z926qjvoWvSf9dR9vaUbY48qwVVIgAAAAAAJXpt5xZ+xLtaWno7uXPt+Ufmb1KoU3NouwmwrN3iVecu+ndh2HhkAAYxpBxFNhyyNmpWtWpnk4uJXJmjeRVVSU0VhU5d6Yr3YjXLRk3Zt07Est+PsQ0dayokuEtSzhZvhmyVrk82rk/Qs93RWJco6sURCPpyLlM69a6UdSyspIKmLyc0bZG9SpmUi7bm3XNE/DYlqZ60RLuNbII8WUp0285tPu5NqFp6PcOvzhG5u9CZt1oWNxS2gi8kzspsPmle9KejwckPMspPgP8AM+7dVR30LXpP+uo+3tKNsceVYKqkQAAAAAAEr0284s/Yl2tLT0d3LnnH5R+ZvUqhTc2i7CbCs3eJV5y76d2HYeGQABO9NP3Lb/il7qlh6PcWvycWbuwkBakc2Rwxy4ctSeeii7iHz7Nj/s3POfdN2tlEJ/iTSdVQXOWms0NOsELlYsszFcr1TWqIipkhP4mgrU24qvTOueTiuZdXW1UsswPixmJ6SXjIUhq6fLjWNXNqoupybiK0lo6cOuJiddMujHv/AKsbfFh+m3nNp93JtQlej3Dr84c2bvQmbdaFjcUtoIvJM7KbD5pXvSno8HJDzLKT4D/M+7dVR30LXpP+uo+3tKNsceVYKqkQAAAAAAEq0284s/Yl2tLT0d3LnnH5R+ZvUqjTc2i7CbCs3eJV5y76d2HYeHp+Oc1qZuVGp51XIzFNU7IhjXECKipmi5p7DExMeJrTzTT9y2/4pe6WHo9xa/JxZu7HmkBakc2Qwz+G7V8FF3EPn+X/AC6/8p901b4cNcpfKv7Sl/jwhCqRoU5/dfdR7VIDpDw7fm7cHely0285tPu5NqHno9w6/ODN3oTNutCxuKW0EXkmdlNh80r3pT0eDl0oeWUnwH+Z926qjvoWvSf9dR9vaUbY48qwVVIgAAAAAAJlpqpJHw2usan9KNXxuXzKuSpsLL0duU67lv4zqlw5sTsqZ7YLlDdrNSVtM7hMkiTNOlrkTlavtRSDy7FVm/VRVzddqqK6ImHoHM2IJj6+1lzxHWxyTSJT08roookcqIiNXLPLzquZfNG41uzj09WNsxrmUNfrqqrlkeh+9Vclzntc0r5KZYuMY1zs+AqKmrrzI7T2Pb/Ri7EapiW/DuVdbq/B6mmn7lt/Ln/yl7qnL0f4tfk25u7CQFqRrZDDX4btXwUPcQ+fZn8uv/KfdN2+HDXGTyjutT6DT4QhFJ0Kc/uvuo+8pX+kPDt+btwd6XLTbzm0+7k2oeej3Cr84M3ehM260LG4pbQReSZ2E2HzWvelPR4OFTUQ0lPJUVMiRxRNV73rqaidJm3bqu1xRRtmWKqopjXKWaL0kuOM7pdmNVsKskVc01K92aJ+yFp01qtYdFqfHZ/qEfi/uuzUrBU0iAAAAAAA+K82umvNtmoK1iuilTLNNbV6FT2ob8bIrx7kXKPGHi5RFdPVlL/5BjHB9VKtiV9TSPXPOJEejk/9MXUvUWntmBn0ar2yfr+JR/6V6zP7fBnWCLjerjQ1EmIKfiJ2zI2NvFcD7OWv9yB0nZx7NdMY8641c9bsx666o/eieJvxHdfjJe8pcsT+PR5R7Iy7vyyTQ9+K3/Cv2oR2nP4n3huxOIyfTT9y2/4pe6pG9H+LX5OjN3YSAtSNbIYa/Ddq+Ch7iHz7M/l1/wCU+6bt8OGuMnlHdan0GnwhCKToU5/dfdR7VK/0h4dvzduDvS5abec2n3cm1Dz0e4dfnBm70Jm3WhY3FLYnE1XcaHDz6izxcbWNRiRsRnDz5Uz5OooOHbs3Mnq3p/btTF2qqLeulOqmgx1jB7Ke4ROp6PhIq8NqRRp7VTW4sVF3RuDTNVE65+m2XFNN+9slR8L2Clw5bG0dKqvcq8OWV2uR3n6uhEK3m5leXd69WyPhDus2otU6oeucbaAAAAAAABkAAa6Yvp5KfE10jlbwXLUvcntRVzRf2U+hYVUVY1ExyhCXY1XJZLochkdiaaRGKsbKZ3Cd0JmqZEdp2qIxdX1b8OP+RkumeGR9gopGMc5kdT9tyJyNzauWZHdH5j9auPo35sfshHkaqqiIiqq8iIWz6o1spYoZKex26CVMpI6aNrm5alRqIfPMqqJya5jw1/lN241URDXGtgkpqyeCZqtkjkVrmr0Kin0CiqKqYmELMap1KPoVikSqusysdxfAjbwujPNVyIDpDMdS3HxdmF4y7NNcEjltU6MVYk4xnCy1LyLv/Y8dHao6tdPx2PWdG2JTOmp5aioigiarpJHo1rctaqpY6qopiap8IcERrnU2bYmTGp0oh82q2zKejwcjDIADAAAAAAAAAABl4t+wrZ7+9stxpeFM1MuNjcrHZeZVTX+p34uksjGjq252cmm5YoubZja+qzWW32SmWntlMkLFXNy5qrnL51VeVTTk5d7Jq612db1RbptxqpfVV0sFbTSU1XEyaCRMnxvTNFQ027lduqK6J1TDNVMVRql4FvwHh231jauChV0jF4TElkV7WL50Rf8AZI3dMZd2nqzU1U41qmdepkv6kW3sfvWDLFeqr+KraT+uv98kT1Yr+vLX1kjj6VyrFPUpq2NNePbrnXMPVtdsorTRtpLdTsggby8FvSvnVelTkv5Fy/X17k65bKLdNEaqXK4UFJcqR9LX07J4H62PMWb1yzX17c6pKqKa41VPKtGD7FZqpKqgoUbOn9skj1erOrPUdd/SmVfp6ldWz0a6Me3ROuIe8R7eBgAAAAAAAAAAAAAAAAAAAMgAMAAMgYAAAAAAAAAAAAAAAAAAAAAAAAAAAAAAAAAAAAAAAAAAAAAAAAAAAAAAAAAAAAAAAAAAAAAAAAAAAAAAAAAAAAAAAAAAAAAAAAAAAAAAAAAAAAD/2Q==;" vertex="1" parent="1">
          <mxGeometry x="820.96" y="189" width="43" height="43" as="geometry" />
        </mxCell>
        <mxCell id="8jS6UkBqUCnionH_lNcG-21" value="" style="image;aspect=fixed;html=1;points=[];align=center;fontSize=12;image=img/lib/azure2/analytics/Azure_Databricks.svg;" vertex="1" parent="1">
          <mxGeometry x="476" y="166" width="41.56" height="45" as="geometry" />
        </mxCell>
        <mxCell id="8jS6UkBqUCnionH_lNcG-22" value="" style="endArrow=classic;html=1;rounded=0;entryX=-0.057;entryY=0.532;entryDx=0;entryDy=0;entryPerimeter=0;" edge="1" parent="1" source="8jS6UkBqUCnionH_lNcG-21" target="8jS6UkBqUCnionH_lNcG-7">
          <mxGeometry width="50" height="50" relative="1" as="geometry">
            <mxPoint x="426" y="424" as="sourcePoint" />
            <mxPoint x="476" y="374" as="targetPoint" />
          </mxGeometry>
        </mxCell>
        <mxCell id="8jS6UkBqUCnionH_lNcG-23" value="" style="endArrow=classic;html=1;rounded=0;" edge="1" parent="1" target="8jS6UkBqUCnionH_lNcG-9">
          <mxGeometry width="50" height="50" relative="1" as="geometry">
            <mxPoint x="518" y="192" as="sourcePoint" />
            <mxPoint x="544" y="224" as="targetPoint" />
          </mxGeometry>
        </mxCell>
        <mxCell id="8jS6UkBqUCnionH_lNcG-25" value="" style="image;aspect=fixed;html=1;points=[];align=center;fontSize=12;image=img/lib/azure2/analytics/Azure_Synapse_Analytics.svg;" vertex="1" parent="1">
          <mxGeometry x="827.96" y="459" width="33.91" height="39" as="geometry" />
        </mxCell>
      </root>
    </mxGraphModel>
  </diagram>
</mxfile>
